<svg xmlns="http://www.w3.org/2000/svg" width="22.102" height="22.933" viewBox="0 0 22.102 22.933">
  <path id="clip" d="M21.928,9.17a.955.955,0,0,0-1.351,0l-10.4,10.45a4.777,4.777,0,1,1-6.756-6.755L13.494,2.747A2.866,2.866,0,1,1,17.547,6.8L7.47,16.917a.976.976,0,0,1-1.351,0,.955.955,0,0,1,0-1.351l8.972-9.013A.955.955,0,1,0,13.74,5.2L4.769,14.216a2.866,2.866,0,0,0,0,4.053,2.936,2.936,0,0,0,4.053,0L18.9,8.15A4.776,4.776,0,1,0,12.143,1.4L2.066,11.515a6.687,6.687,0,0,0,9.457,9.457l10.4-10.447a.955.955,0,0,0,0-1.355Z" transform="translate(-0.108 0.003)" fill="#333"/>
</svg>
