<svg xmlns="http://www.w3.org/2000/svg" width="18.848" height="17.267" viewBox="0 0 18.848 17.267">
  <path id="eye-crossed" d="M18.268,7.61a12.456,12.456,0,0,0-2.646-3.069l2.2-2.2a.785.785,0,1,0-1.11-1.11l-2.39,2.394A9.463,9.463,0,0,0,9.42,2.3,10.4,10.4,0,0,0,.571,7.61a3.853,3.853,0,0,0,0,4.052,12.456,12.456,0,0,0,2.646,3.069l-2.2,2.2a.785.785,0,1,0,1.11,1.11l2.4-2.4A9.463,9.463,0,0,0,9.42,16.973a10.4,10.4,0,0,0,8.848-5.31A3.853,3.853,0,0,0,18.268,7.61ZM1.909,10.841a2.291,2.291,0,0,1,0-2.409A8.887,8.887,0,0,1,9.42,3.87a7.929,7.929,0,0,1,3.742.915l-1.58,1.58A3.919,3.919,0,0,0,6.148,11.8L4.335,13.611a10.773,10.773,0,0,1-2.426-2.77Zm9.866-1.2A2.355,2.355,0,0,1,9.42,11.992a2.317,2.317,0,0,1-1.009-.236l3.128-3.128A2.317,2.317,0,0,1,11.775,9.636Zm-4.71,0A2.355,2.355,0,0,1,9.42,7.281a2.317,2.317,0,0,1,1.009.236L7.3,10.645a2.317,2.317,0,0,1-.236-1.009Zm9.866,1.2A8.887,8.887,0,0,1,9.42,15.4a7.929,7.929,0,0,1-3.742-.915l1.58-1.58a3.919,3.919,0,0,0,5.433-5.433L14.5,5.662a10.773,10.773,0,0,1,2.426,2.77,2.291,2.291,0,0,1,0,2.409Z" transform="translate(0.004 -1.003)" fill="#26124f"/>
</svg>
